<?xml version="1.0" encoding="UTF-8"?>
<svg width="56px" height="54px" viewBox="0 0 56 54" version="1.1" xmlns="http://www.w3.org/2000/svg" xmlns:xlink="http://www.w3.org/1999/xlink">
    <!-- Generator: Sketch 52.4 (67378) - http://www.bohemiancoding.com/sketch -->
    <title>collection-all-cases-1</title>
    <desc>Created with Sketch.</desc>
    <g id="Ranks-and-Badges" stroke="none" stroke-width="1" fill="none" fill-rule="evenodd">
        <g id="Badges" transform="translate(-1394.000000, -624.000000)" stroke-width="1.25">
            <g id="collection-all-cases-1" transform="translate(1395.000000, 625.000000)">
                <path d="M46.8908225,22.9947299 C49.3463237,21.0036985 51.6286093,18.798729 53.712076,16.4045571 C54.0959747,15.9526231 54.0959747,15.2804235 53.712076,14.8284895 C50.9812265,11.657134 40.0601764,0 27,0 C13.9398236,0 3.0187735,11.657134 0.287923953,14.8284895 C-0.0959746509,15.2804235 -0.0959746509,15.9526231 0.287923953,16.4045571 C2.79100703,19.311633 12.1740464,29.3446485 23.7690035,31" id="Shape" stroke="#FFFFFF" fill="#211E95" stroke-linecap="round" stroke-linejoin="round"></path>
                <circle id="Oval" stroke="#FFFFFF" fill="#27264A" stroke-linecap="round" stroke-linejoin="round" cx="27.5" cy="14.5" r="8.5"></circle>
                <path d="M27.5,11 C29.4329966,11 31,12.5670034 31,14.5 C31,16.4329966 29.4329966,18 27.5,18 C25.5670034,18 24,16.4329966 24,14.5" id="Shape" stroke="#FFFFFF" stroke-linecap="round" stroke-linejoin="round"></path>
                <path d="" id="Path-4" stroke="#979797" fill-rule="nonzero"></path>
                <circle id="Oval" stroke="#FFFFFF" fill="#B8038E" stroke-linecap="round" stroke-linejoin="round" cx="39" cy="38" r="14"></circle>
                <path d="M45,34 L38.1770551,43.2818128 C37.8704362,43.6979186 37.4022591,43.9581662 36.8933554,43.9953883 C36.3844518,44.0326105 35.8846833,43.8431603 35.5230352,43.4759328 L32,39.8811177" id="Shape" stroke="#FFFFFF" stroke-linecap="round" stroke-linejoin="round"></path>
            </g>
        </g>
    </g>
</svg>