<?xml version="1.0" encoding="UTF-8"?>
<svg width="45px" height="44px" viewBox="0 0 45 44" version="1.1" xmlns="http://www.w3.org/2000/svg" xmlns:xlink="http://www.w3.org/1999/xlink">
    <!-- Generator: Sketch 52.4 (67378) - http://www.bohemiancoding.com/sketch -->
    <title>rsna18-event-top10-inactive</title>
    <desc>Created with Sketch.</desc>
    <g id="Ranks-and-Badges" stroke="none" stroke-width="1" fill="none" fill-rule="evenodd" stroke-linecap="round" stroke-linejoin="round">
        <g id="Badges" transform="translate(-343.000000, -211.000000)" stroke="#4845A0" stroke-width="1.25">
            <g id="rsna18-event-top10-inactive" transform="translate(344.000000, 212.000000)">
                <path d="M37.9345737,1.87916676 C37.9469307,1.38504467 37.7592454,0.906867189 37.4140803,0.553072938 C37.0689152,0.199278687 36.595517,-0.000154396491 36.1012404,8.96848164e-08 L6.83390708,8.96848164e-08 C6.33963052,-0.000154396491 5.86623228,0.199278687 5.52106716,0.553072938 C5.17590204,0.906867189 4.9882168,1.38504467 5.00057374,1.87916676 C5.63674041,27.9381668 19.5810737,20.4930001 19.5810737,30.2500001 C19.4802404,35.9003334 17.1372404,37.9958334 13.1222404,38.4175001 C12.1409983,38.5198171 11.3955525,39.3467713 11.3952404,40.3333334 C11.3952404,41.3458555 12.2160517,42.1666668 13.2285737,42.1666668 L29.7065737,42.1666668 C30.7190958,42.1666668 31.5399071,41.3458555 31.5399071,40.3333334 C31.539595,39.3467713 30.7941492,38.5198171 29.8129071,38.4175001 C25.7979071,37.9958334 23.4549071,35.9003334 23.3540737,30.2500001 C23.3540737,20.4930001 37.2984071,27.9381668 37.9345737,1.87916676 Z" id="Path"></path>
                <path d="M14,15.9166667 L19.5,15.9166667" id="Path"></path>
                <path d="M13,7.75000332 L15.4255,5.32450332 C15.6326356,5.1161298 15.9145236,4.99928162 16.2083333,5.00000332 C16.4614638,5.00000332 16.6666667,5.20520615 16.6666667,5.45833666 L16.6666667,16.0000033" id="Path"></path>
                <path d="M26.6666667,5 C24.6416226,5 23,6.64162258 23,8.66666667 L23,12.3333333 C23,14.3583774 24.6416226,16 26.6666667,16 C28.6917107,16 30.3333333,14.3583774 30.3333333,12.3333333 L30.3333333,8.66666667 C30.3333333,6.64162258 28.6917107,5 26.6666667,5 Z" id="Path"></path>
                <path d="M4.79050032,24.2971667 C1.91080853,23.2325844 -0.000897389778,20.4868392 3.16024789e-07,17.4166667 L3.16024789e-07,12.8333333 C3.16024789e-07,11.8208113 0.820811608,11 1.83333365,11 L5.59350032,11" id="Path"></path>
                <path d="M37.803,24.2971667 C40.6826918,23.2325844 42.5943977,20.4868392 42.5935,17.4166667 L42.5935,12.8333333 C42.5935,11.8208113 41.7726887,11 40.7601667,11 L37,11" id="Path"></path>
            </g>
        </g>
    </g>
</svg>