<?xml version="1.0" encoding="UTF-8"?>
<svg width="41px" height="56px" viewBox="0 0 41 56" version="1.1" xmlns="http://www.w3.org/2000/svg" xmlns:xlink="http://www.w3.org/1999/xlink">
    <!-- Generator: Sketch 52.4 (67378) - http://www.bohemiancoding.com/sketch -->
    <title>rsna18-day-1-inactive</title>
    <desc>Created with Sketch.</desc>
    <g id="Ranks-and-Badges" stroke="none" stroke-width="1" fill="none" fill-rule="evenodd" stroke-linecap="round" stroke-linejoin="round">
        <g id="Badges" transform="translate(-234.000000, -200.000000)" stroke="#4845A0" stroke-width="1.25">
            <g id="rsna18-day-1-inactive" transform="translate(235.000000, 201.000000)">
                <path d="M29,41 L28.999998,52.7692434 C29.0009038,53.2668168 28.6963409,53.7157915 28.2286564,53.9063251 C27.7609718,54.0968587 27.2225338,53.9913205 26.8649984,53.6390372 L19,45.909175 L11.1350016,53.6390372 C10.7774662,53.9913205 10.2390282,54.0968587 9.77134365,53.9063251 C9.30365914,53.7157915 8.99909621,53.2668168 9.00000201,52.7692434 L9,41" id="Path"></path>
                <circle id="Oval" cx="19.5" cy="19.5" r="19.5"></circle>
                <circle id="Oval" cx="19.5" cy="19.5" r="13.5"></circle>
                <path d="M19,24 L19,13.2000062 C19,12.74548 18.732497,12.3299645 18.309017,12.1266942 C17.885537,11.9234239 17.3787721,11.9672911 17,12.2400068 L14,14.4000055" id="Path"></path>
                <path d="M17,24 L22,24" id="Path"></path>
            </g>
        </g>
    </g>
</svg>