<?xml version="1.0" encoding="UTF-8"?>
<svg width="51px" height="54px" viewBox="0 0 51 54" version="1.1" xmlns="http://www.w3.org/2000/svg" xmlns:xlink="http://www.w3.org/1999/xlink">
    <!-- Generator: Sketch 52.4 (67378) - http://www.bohemiancoding.com/sketch -->
    <title>rsna18-group-1</title>
    <desc>Created with Sketch.</desc>
    <g id="Ranks-and-Badges" stroke="none" stroke-width="1" fill="none" fill-rule="evenodd">
        <g id="Badges" transform="translate(-122.000000, -314.000000)">
            <g id="rsna18-group-1" transform="translate(123.000000, 315.000000)">
                <text id="#1" font-family="SFProText-Semibold, SF Pro Text" font-size="11" font-weight="500" fill="#FFFFFF">
                    <tspan x="18.027847" y="32.7755102">#1</tspan>
                </text>
                <circle id="Oval" stroke="#7CF4FE" stroke-width="1.5" stroke-linecap="round" stroke-linejoin="round" cx="24.3469388" cy="3.75255102" r="3.69642857"></circle>
                <path d="M31.7397959,14.8418367 C30.8780559,11.4624383 27.8344779,9.09757224 24.3469388,9.09757224 C20.8593996,9.09757224 17.8158216,11.4624383 16.9540816,14.8418367" id="Path" stroke="#7CF4FE" stroke-width="1.5" stroke-linecap="round" stroke-linejoin="round"></path>
                <circle id="Oval" stroke="#7CF4FE" stroke-width="1.5" stroke-linecap="round" stroke-linejoin="round" cx="41.244898" cy="40.3647959" r="3.69642857"></circle>
                <path d="M48.6377551,51.4540816 C47.7760151,48.0746832 44.7324371,45.7098171 41.244898,45.7098171 C37.7573588,45.7098171 34.7137808,48.0746832 33.8520408,51.4540816" id="Path" stroke="#7CF4FE" stroke-width="1.5" stroke-linecap="round" stroke-linejoin="round"></path>
                <circle id="Oval" stroke="#7CF4FE" stroke-width="1.5" stroke-linecap="round" stroke-linejoin="round" cx="7.44897959" cy="40.3647959" r="3.69642857"></circle>
                <path d="M14.8418367,51.4540816 C13.9800968,48.0746832 10.9365188,45.7098171 7.44897959,45.7098171 C3.96144042,45.7098171 0.91786242,48.0746832 0.056122449,51.4540816" id="Path" stroke="#7CF4FE" stroke-width="1.5" stroke-linecap="round" stroke-linejoin="round"></path>
                <path d="M30.7892857,46.1734694 C26.6097218,47.5810884 22.0841558,47.5810884 17.9045918,46.1734694" id="Path" stroke="#B8038E" stroke-width="1.5" stroke-linecap="round" stroke-linejoin="round"></path>
                <path d="M33.3197551,9.20918367 C41.1521371,13.133633 45.5397166,21.679756 44.1640204,30.3316327" id="Path" stroke="#B8038E" stroke-width="1.5" stroke-linecap="round" stroke-linejoin="round"></path>
                <path d="M4.52985714,30.3316327 C3.15417618,21.6786367 7.54382226,13.131818 15.3783469,9.20918367" id="Path" stroke="#B8038E" stroke-width="1.5" stroke-linecap="round" stroke-linejoin="round"></path>
            </g>
        </g>
    </g>
</svg>