<?xml version="1.0" encoding="UTF-8"?>
<svg width="48px" height="48px" viewBox="0 0 48 48" version="1.1" xmlns="http://www.w3.org/2000/svg" xmlns:xlink="http://www.w3.org/1999/xlink">
    <!-- Generator: Sketch 52.4 (67378) - http://www.bohemiancoding.com/sketch -->
    <title>session-measurements-50-inactive</title>
    <desc>Created with Sketch.</desc>
    <g id="Ranks-and-Badges" stroke="none" stroke-width="1" fill="none" fill-rule="evenodd">
        <g id="Badges" transform="translate(-887.000000, -722.000000)">
            <g id="session-measurements-50-inactive" transform="translate(887.000000, 720.000000)">
                <path d="M16.4958333,14.7282083 C16.9829614,14.1194741 17.720352,13.7651298 18.5,13.7651298 C19.279648,13.7651298 20.0170386,14.1194741 20.5041667,14.7282083 L22.8860417,17.6928333 C23.4351519,18.3759935 24.2948882,18.7317465 25.1661667,18.6363333 L28.9463333,18.2247083 C29.7193744,18.1423119 30.4881655,18.4142742 31.037435,18.9644421 C31.5867044,19.5146101 31.8574098,20.2838446 31.77375,21.05675 L31.362125,24.835375 C31.2673695,25.7068913 31.6236696,26.5665454 32.3071667,27.1155 L35.27025,29.4958333 C35.8784574,29.9832882 36.2324039,30.7205589 36.2324039,31.5 C36.2324039,32.2794411 35.8784574,33.0167118 35.27025,33.5041667 L32.3071667,35.8860417 C31.6236853,36.4343303 31.2673263,37.293545 31.362125,38.164625 L31.77375,41.9447917 C31.8582704,42.7183218 31.5873407,43.4884346 31.0371168,44.0386585 C30.486893,44.5888824 29.7167802,44.859812 28.94325,44.7752917 L25.1630833,44.3636667 C24.2916514,44.2694994 23.4322694,44.6256868 22.8829583,45.3087083 L20.5041667,48.2687083 C20.0170386,48.8774425 19.279648,49.2317868 18.5,49.2317868 C17.720352,49.2317868 16.9829614,48.8774425 16.4958333,48.2687083 L14.1170417,45.305625 C13.5677306,44.6226035 12.7083486,44.2664161 11.8369167,44.3605833 L8.05675,44.7722083 C7.28321985,44.8567287 6.51310703,44.585799 5.96288317,44.0355752 C5.41265931,43.4853513 5.14172964,42.7152385 5.22625,41.9417083 L5.637875,38.1615417 C5.73267368,37.2904617 5.37631468,36.431247 4.69283333,35.8829583 L1.72975,33.5041667 C1.12154264,33.0167118 0.767596122,32.2794411 0.767596122,31.5 C0.767596122,30.7205589 1.12154264,29.9832882 1.72975,29.4958333 L4.69283333,27.1155 C5.37633035,26.5665454 5.73263055,25.7068913 5.637875,24.835375 L5.22625,21.05675 C5.14242346,20.2832503 5.41351905,19.513416 5.9635186,18.9631168 C6.51351816,18.4128177 7.2832048,18.141303 8.05675,18.2247083 L11.8369167,18.6363333 C12.7081952,18.7317465 13.5679314,18.3759935 14.1170417,17.6928333 L16.4958333,14.7282083 Z" id="Path" stroke="#4845A0" stroke-width="1.25" stroke-linecap="round" stroke-linejoin="round"></path>
                <path d="M24.6666667,27.6458333 L18.3920833,36.0109167 C18.1866058,36.2848335 17.8724768,36.4562268 17.5309376,36.4807703 C17.1893983,36.5053138 16.8539905,36.3805972 16.6114583,36.138875 L12.8467083,32.3725833" id="Path" stroke="#4845A0" stroke-width="1.25" stroke-linecap="round" stroke-linejoin="round"></path>
                <text id="50" font-family="SFProText-Semibold, SF Pro Text" font-size="13" font-weight="500" fill="#4845A0">
                    <tspan x="31" y="12">50</tspan>
                </text>
            </g>
        </g>
    </g>
</svg>