<svg xmlns="http://www.w3.org/2000/svg" xmlns:xlink="http://www.w3.org/1999/xlink">
    <symbol id="icon-tools-levels" viewBox="0 0 18 18">
        <title>Window / Level</title>
        <g id="icon-tools-levels-group">
            <path id="icon-tools-levels-path" d="M14.5,3.5 a1 1 0 0 1 -11,11 Z" stroke="none" opacity="0.8" />
            <circle id="icon-tools-levels-circle" cx="9" cy="9" r="8" fill="none" stroke-width="2" />
        </g>
    </symbol>
    <symbol id="icon-tools-measure-target" viewBox="0 0 26 26">
        <title>Target Measurement</title>
        <g id="icon-tools-measure-target-group" stroke-width="0">
            <path id="icon-tools-measure-target-ruler" d="m9.5,26 2,-2 -1.5,-1.5 0.5,-0.5 1.5,1.5 1.5,-1.5 -2.5,-2.5 0.5,-0.5 2.5,2.5 1.5,-1.5 -1.5,-1.5 0.5,-0.5 1.5,1.5 1.5,-1.5 -2.5,-2.5 0.5,-0.5 2.5,2.5 1.5,-1.5 -1.5,-1.5 0.5,-0.5 1.5,1.5 1.5,-1.5 -2.5,-2.5 0.5,-0.5 2.5,2.5 1.5,-1.5 -1.5,-1.5 0.5,-0.5 1.5,1.5 2,-2 -4,-4 a2 2 0 0 0 -2.5 0 l-14 14 a2 2 0 0 0 0 2.5 l4,4 Z" />
            <path id="icon-tools-measure-target-plus" d="m6,0 a6 6 0 0 1 0 12 a6 6 0 0 1 0 -12 m0.5,3 a0.5 0.5 0 0 0 -1 0 l0,2.5 -2.5,0 a0.5 0.5 0 0 0 0 1 l2.5,0 0,2.5 a0.5 0.5 0 0 0 1 0 l0,-2.5 2.5,0 a0.5 0.5 0 0 0 0 -1 l-2.5,0 z" />
        </g>
    </symbol>
    <symbol id="icon-tools-pan" viewBox="0 0 18 18">
        <title>Pan</title>
        <g id="icon-tools-pan-group" fill="none" stroke-width="2" stroke-linecap="round" stroke-linejoin="round">
            <path id="icon-tools-pan-line-v" d="M9,1 L9,17"></path>
            <path id="icon-tools-pan-line-h" d="M1,9 L17,9"></path>
            <polyline id="icon-tools-pan-caret-t" points="7 3 9 1 11 3"></polyline>
            <polyline id="icon-tools-pan-caret-r" points="15 11 17 9 15 7"></polyline>
            <polyline id="icon-tools-pan-caret-b" points="11 15 9 17 7 15"></polyline>
            <polyline id="icon-tools-pan-caret-l" points="3 7 1 9 3 11"></polyline>
        </g>
    </symbol>
    <symbol id="icon-tools-zoom" viewBox="0 0 17 17">
        <title>Zoom</title>
        <g id="icon-tools-zoom-group" fill="none" stroke-width="2" stroke-linecap="round">
            <path id="icon-tools-zoom-path" d="m11.5,11.5 4.5,4.5" />
            <circle id="icon-tools-zoom-circle" cx="7" cy="7" r="6" />
        </g>
    </symbol>
    <symbol id="icon-tools-stack-scroll" viewBox="0 0 24 28">
        <title>Stack Scroll</title>
        <path d="M24 21v2c0 0.547-0.453 1-1 1h-22c-0.547 0-1-0.453-1-1v-2c0-0.547 0.453-1 1-1h22c0.547 0 1 0.453 1 1zM24 13v2c0 0.547-0.453 1-1 1h-22c-0.547 0-1-0.453-1-1v-2c0-0.547 0.453-1 1-1h22c0.547 0 1 0.453 1 1zM24 5v2c0 0.547-0.453 1-1 1h-22c-0.547 0-1-0.453-1-1v-2c0-0.547 0.453-1 1-1h22c0.547 0 1 0.453 1 1z"></path>
    </symbol>
    <symbol id="icon-tools-reset" viewBox="0 0 24 28">
        <title>Reset</title>
        <path d="M24 14c0 6.609-5.391 12-12 12-3.578 0-6.953-1.578-9.234-4.328-0.156-0.203-0.141-0.5 0.031-0.672l2.141-2.156c0.109-0.094 0.25-0.141 0.391-0.141 0.141 0.016 0.281 0.078 0.359 0.187 1.531 1.984 3.828 3.109 6.312 3.109 4.406 0 8-3.594 8-8s-3.594-8-8-8c-2.047 0-3.984 0.781-5.437 2.141l2.141 2.156c0.297 0.281 0.375 0.719 0.219 1.078-0.156 0.375-0.516 0.625-0.922 0.625h-7c-0.547 0-1-0.453-1-1v-7c0-0.406 0.25-0.766 0.625-0.922 0.359-0.156 0.797-0.078 1.078 0.219l2.031 2.016c2.203-2.078 5.187-3.313 8.266-3.313 6.609 0 12 5.391 12 12z"></path>
    </symbol>
    <symbol id="icon-trial-info" viewBox="0 0 20 20">
        <title>Trial Information</title>
        <g id="icon-trial-info-group" stroke-width="2">
            <path id="icon-trial-info-circle" d="M10,1 a9 9 0 0 1 0 18 a9 9 0 0 1 0 -18 M10,5 l0,2 m0,2 0,6" />
        </g>
    </symbol>
    <symbol id="icon-spinner" viewBox="0 0 512 512">
        <title>
            Spinner
        </title>
        <!--Font-awesome circle-notch https://fontawesome.com/license CC-BY-Attribution !-->
        <g id="icon-spinner-group">
            <path d="M288 39.056v16.659c0 10.804 7.281 20.159 17.686 23.066C383.204 100.434 440 171.518 440 256c0 101.689-82.295 184-184 184-101.689 0-184-82.295-184-184 0-84.47 56.786-155.564 134.312-177.219C216.719 75.874 224 66.517 224 55.712V39.064c0-15.709-14.834-27.153-30.046-23.234C86.603 43.482 7.394 141.206 8.003 257.332c.72 137.052 111.477 246.956 248.531 246.667C393.255 503.711 504 392.788 504 256c0-115.633-79.14-212.779-186.211-240.236C302.678 11.889 288 23.456 288 39.056z"></path>
        </g>
    </symbol>
    <symbol id="fast-backward" viewBox="0 0 512 512">
        <!--Font-awesome fast-backward https://fontawesome.com/license CC-BY-Attribution !-->
        <g id="fast-backward">
            <path fill="currentColor" d="M0 436V76c0-6.6 5.4-12 12-12h40c6.6 0 12 5.4 12 12v151.9L235.5 71.4C256.1 54.3 288 68.6 288 96v131.9L459.5 71.4C480.1 54.3 512 68.6 512 96v320c0 27.4-31.9 41.7-52.5 24.6L288 285.3V416c0 27.4-31.9 41.7-52.5 24.6L64 285.3V436c0 6.6-5.4 12-12 12H12c-6.6 0-12-5.4-12-12z">
            </path>
        </g>
    </symbol>
    <symbol id="check-solid" viewBox="0 0 512 512">
        <!--Font-awesome check-solid https://fontawesome.com/license CC-BY-Attribution !-->
        <g id="check-solid">
            <path fill="currentColor" d="M173.898 439.404l-166.4-166.4c-9.997-9.997-9.997-26.206 0-36.204l36.203-36.204c9.997-9.998 26.207-9.998 36.204 0L192 312.69 432.095 72.596c9.997-9.997 26.207-9.997 36.204 0l36.203 36.204c9.997 9.997 9.997 26.206 0 36.204l-294.4 294.401c-9.998 9.997-26.207 9.997-36.204-.001z"/>
        </g>
    </symbol>
    <symbol id="icon-wl-brain" viewBox="0 0 26 26" >
        <g transform="translate(1, 1)" fill="none" stroke-linecap="round" stroke-linejoin="round" stroke-width="1.25">
            <path d="M9.477,17.251 C9.47700008,15.4559127 8.02208718,14.0005522 6.227,14 C6.174,14 6.127,14.013 6.074,14.016" />
            <path d="M9.139,4.388 C10.1071794,4.06154926 10.6736294,3.05782814 10.4526509,2.06027619 C10.2316724,1.06272423 9.29432573,0.392125319 8.27885567,0.505094155 C7.26338561,0.618062991 6.49633799,1.47827206 6.5,2.5 C6.50273041,2.68084368 6.52997882,2.86048132 6.581,3.034 C6.47,3.025 6.363,3 6.25,3 C4.82125583,2.99272637 3.51375534,3.80180432 2.88272268,5.08366258 C2.25169001,6.36552084 2.40789271,7.89515 3.285,9.023 C1.71628128,9.12669427 0.496882579,10.4293579 0.496882579,12.0015 C0.496882579,13.5736421 1.71628128,14.8763057 3.285,14.98 C2.4088849,16.1076699 2.25328058,17.6364954 2.88423445,18.9175552 C3.51518832,20.198615 4.82200641,21.0071611 6.25,21 C6.363,21 6.47,20.977 6.581,20.967 C6.28383855,22.0182201 6.88514293,23.1134021 7.93160342,23.4269131 C8.97806392,23.7404241 10.0824855,23.1562636 10.4122698,22.114817 C10.7420542,21.0733704 10.1751796,19.9599776 9.139,19.614" />
            <path d="M6.074,9.986 C6.126,9.986 6.174,10.001 6.227,10.001 C8.02169676,10.000448 9.47644804,8.54569676 9.477,6.751" />
            <path d="M14.523,17.251 C14.5229999,15.4559127 15.9779128,14.0005522 17.773,14 C17.826,14 17.873,14.013 17.926,14.016" />
            <path d="M14.861,4.388 C13.8928206,4.06154926 13.3263706,3.05782814 13.5473491,2.06027619 C13.7683276,1.06272423 14.7056743,0.392125319 15.7211443,0.505094155 C16.7366144,0.618062991 17.503662,1.47827206 17.5,2.5 C17.4972696,2.68084368 17.4700212,2.86048132 17.419,3.034 C17.53,3.024 17.637,3 17.75,3 C19.1783755,2.99302696 20.4854349,3.80196155 21.1163884,5.08344617 C21.7473419,6.36493078 21.5914958,7.89414352 20.715,9.022 C22.2837187,9.12569427 23.5031174,10.4283579 23.5031174,12.0005 C23.5031174,13.5726421 22.2837187,14.8753057 20.715,14.979 C21.5917266,16.1066634 21.7476874,17.6359054 21.1166544,18.9173389 C20.4856213,20.1987723 19.1783622,21.0074617 17.75,21 C17.637,21 17.53,20.977 17.419,20.967 C17.7161614,22.0182201 17.1148571,23.1134021 16.0683966,23.4269131 C15.0219361,23.7404241 13.9175145,23.1562636 13.5877302,22.114817 C13.2579458,21.0733704 13.8248204,19.9599776 14.861,19.614" />
            <path d="M17.926,9.986 C17.874,9.986 17.826,10.001 17.773,10.001 C15.9783032,10.000448 14.523552,8.54569676 14.523,6.751" />
            <path d="M10.5,2.4 C11.4282032,1.86410162 12.5717968,1.86410162 13.5,2.4" />
            <path d="M10.409,22.1 C11.4022898,22.6360615 12.5987102,22.6360615 13.592,22.1" />
            <path d="M12,7.001 L12,17.501" />
        </g>
    </symbol>
    <symbol id="icon-wl-soft-tissue" viewBox="0 0 25 26">
        <g transform="translate(1, 0)" fill="none" stroke-linecap="round" stroke-linejoin="round" stroke-width="1.5">
            <path d="M14.967698,4.34501388 C15.2550298,4.40495392 15.4415328,4.45457827 15.49227,4.47472995 L18.99227,5.87472995 C19.9229327,6.24535421 20.6071984,7.05604396 20.81627,8.03572995 L22.9240586,12.8507299 C22.9557821,12.9984259 22.9190298,13.1525467 22.8240697,13.2700332 C22.7291096,13.3875196 22.5861231,13.4557751 22.4350586,13.4557299 L19.8300586,13.4557299 C19.59777,13.4558087 19.3960204,13.2959003 19.3430586,13.0697299 C18.4206468,11.3443101 17.9482939,10.4360314 17.926,10.3448938 C17.8925591,10.2081875 16.5995878,10.2646269 16.459794,10.2808938 C16.3200002,10.2971607 16.2142084,10.4149977 16.2130513,10.5557299 L17.00127,20.3677299 C17.00127,20.3924522 16.9994757,20.4167554 16.9960103,20.4405163 L17.339103,24.2068239 C17.3452344,24.3460372 17.2941797,24.4817044 17.197789,24.5823363 C17.1013983,24.6829682 16.9680538,24.7398138 16.8287056,24.7396788 L13.9563203,24.7396788 C13.6914418,24.7407536 13.46976,24.5390231 13.4459229,24.2752171 L12.8473618,20.8677299 L10.1448444,20.8677299 L9.49110077,24.2803211 C9.46701518,24.5439249 9.24540292,24.7453704 8.98070334,24.7442724 L6.11087007,24.7442724 C5.97161444,24.7444012 5.83835272,24.6876252 5.74197794,24.5871063 C5.64560316,24.4865874 5.59448459,24.3510547 5.60047264,24.2119279 L6.14951108,15.8281788 L6.32074271,10.6197299 C6.31958556,10.4789977 6.21379378,10.3611607 6.074,10.3448938 C5.93420622,10.3286269 4.85576757,10.2964486 4.82232666,10.433155 L3.7992041,13.0707299 C3.74559243,13.2975992 3.54231637,13.4573161 3.3092041,13.4557299 L0.709204102,13.4557299 C0.557909896,13.4562444 0.414519128,13.3882257 0.319204102,13.2707299 C0.224030189,13.1530765 0.187261793,12.9986492 0.219204102,12.8507299 L2.18526996,8.03772995 C2.39454762,7.05764471 3.08031159,6.24726462 4.01226996,5.87872995 L7.51226996,4.47872995 C7.56317342,4.45842417 7.74746599,4.41024276 8.03238467,4.35190973 L8.61849365,0.987915039 C9.55902913,1.39587402 10.4626872,1.59985352 11.3294678,1.59985352 C12.1962484,1.59985352 13.0229899,1.39587402 13.8096924,0.987915039 L14.967698,4.34501388 Z" />
        </g>
    </symbol>
    <symbol id="icon-wl-lung" viewBox="0 0 27 24">
        <g transform="translate(1, 1)" fill="none" stroke-width="1.5">
            <path d="M4.54995935,23.0682142 L5.21755165,23.0682142 C7.73042481,23.0682142 9.767511,21.031128 9.767511,18.5182549 L9.767511,15.6678583 C9.767511,14.5637174 9.41504385,13.4884059 8.76143431,12.5985061 L8.76143431,12.5985061 C8.10782476,11.7086062 7.75535761,10.6332948 7.75535761,9.52915385 L7.75535761,6.94406376 C7.75535761,6.32558369 7.38554676,5.76703946 6.81616159,5.52554801 C5.25840278,5.17062216 4.58145592,5.710798 3.84612497,6.74773742 C3.19639763,7.66396146 2.11984103,9.64970738 0.616455185,12.7049752 L0.616455169,12.7049752 C0.210903154,13.5291615 -1.12491357e-16,14.4354596 0,15.3540212 L0,18.5182549 C3.07738207e-16,21.031128 2.03708619,23.0682142 4.54995935,23.0682142 Z" />
            <path d="M10.4645082,0 L10.4645082,7.63276134 C10.4645082,8.24023016 10.188418,8.81477376 9.7141179,9.19432323 L7.58333333,10.8994424" />
            <path d="M16.9645082,0 L16.9645082,7.63276134 C16.9645082,8.24023016 16.688418,8.81477376 16.2141179,9.19432323 L14.0833333,10.8994424" transform="translate(15.523921, 5.449721) scale(-1, 1) translate(-15.523921, -5.449721)" />
            <path d="M19.716626,23.0682142 L20.3842183,23.0682142 C22.8970915,23.0682142 24.9341777,21.031128 24.9341777,18.5182549 L24.9341777,15.6678583 C24.9341777,14.5637174 24.5817105,13.4884059 23.928101,12.5985061 L23.928101,12.5985061 C23.2744914,11.7086062 22.9220243,10.6332948 22.9220243,9.52915385 L22.9220243,6.94406376 C22.9220243,6.32558369 22.5522134,5.76703946 21.9828283,5.52554801 C20.4250695,5.17062216 19.7481226,5.710798 19.0127916,6.74773742 C18.3630643,7.66396146 17.2865077,9.64970738 15.7831219,12.7049752 L15.7831218,12.7049752 C15.3775698,13.5291615 15.1666667,14.4354596 15.1666667,15.3540212 L15.1666667,18.5182549 C15.1666667,21.031128 17.2037529,23.0682142 19.716626,23.0682142 Z" transform="translate(20.050422, 14.242440) scale(-1, 1) translate(-20.050422, -14.242440)" />
        </g>
    </symbol>
    <symbol id="icon-wl-liver" viewBox="0 0 27 20">
        <g transform="translate(1, 1)" fill="none" stroke-width="1.65">
            <path d="M14.1879883,0.427249956 C15.0074875,0.0422121769 15.9522148,-0.00109444417 16.862793,2.04322665e-05 C19.2959911,0.00285829955 21.7960518,0.267011807 24.2293553,0.267721274 C24.632253,0.267923979 24.8592123,0.398871284 24.9616761,0.681948546 C25.0607665,0.955904091 24.9707418,1.17928479 24.6560769,1.42090892 C23.2066152,2.5337583 22.5823452,4.01684802 22.5593647,5.76365669 C22.5282671,8.13499886 20.9667489,10.242014 18.6967339,10.9516835 C17.246956,11.4049314 15.8264835,11.3236468 14.4399549,10.7120864 C14.4015837,10.6951606 14.3626854,10.6791469 14.3462406,10.6721536 C14.0117575,11.143949 13.7204948,11.6275013 13.3572334,12.0543976 C11.801513,13.8830991 9.76720674,14.7494594 7.3234671,14.7689191 C5.91806908,14.7801692 4.5964763,15.1070307 3.37713644,15.7857877 C2.51715767,16.2644751 1.76470259,16.8644813 1.17047602,17.6383069 C0.975141299,17.8924988 0.719930632,17.9690198 0.430038301,17.8745594 C0.145838402,17.7820247 0.0129095911,17.6005025 0.0128041757,17.2720194 C0.0117500218,13.9612418 -0.0213504117,10.6500587 0.0232402996,7.33988926 C0.0699393187,3.87870469 2.93565678,0.850598944 6.47624358,0.427249956 C8.18898075,0.222411674 10.6852298,0.729934666 12.1266085,1.97171448 C12.3659471,2.17791002 12.7690956,2.58896084 13.0694221,3.04543956 C13.3112364,3.41298323 13.6364656,3.89746342 13.7521632,4.10220046 C13.8678607,4.30693751 12.0604076,1.92012611 12.1266085,1.97171448 C12.65611,1.40566131 13.4924575,0.754111457 14.1879883,0.427249956 Z" />
        </g>
    </symbol>
    <symbol id="icon-case-select" viewBox="0 0 24 24">
        <g transform="translate(1, 1)" fill="none" stroke-linecap="round" stroke-linejoin="round" stroke-width="2">
            <g transform="translate(11.000000, 11.000000) scale(-1, 1) rotate(-180.000000) translate(-11.000000, -11.000000)">
                <path d="M5.26470588,5.5 C4.84237049,5.5 4.5,5.94771525 4.5,6.5 L4.5,15.5 C4.5,16.0522847 4.84237049,16.5 5.26470588,16.5 L16.7352941,16.5 C17.1576295,16.5 17.5,16.0522847 17.5,15.5 L17.5,14.5" />
                <rect x="9" y="-1.13686838e-13" width="13" height="11" rx="1" />
                <path d="M0.823529412,11 C0.368706677,11 0,11.4477153 0,12 L0,21 C0,21.5522847 0.368706677,22 0.823529412,22 L13.1764706,22 C13.6312933,22 14,21.5522847 14,21 L14,20" />
            </g>
        </g>
    </symbol>
    <symbol id="icon-end-session" viewBox="0 0 25 24">
        <g transform="translate(1, 1)" fill="none" stroke-linecap="round" stroke-linejoin="round" stroke-width="2">
            <path d="M12.42,4.6 L12.42,1.38 C12.42,0.87189803 12.008102,0.46 11.5,0.46 L1.38,0.46 C0.87189803,0.46 0.46,0.87189803 0.46,1.38 L0.46,20.7 C0.46,21.208102 0.87189803,21.62 1.38,21.62 L11.5,21.62 C12.008102,21.62 12.42,21.208102 12.42,20.7 L12.42,17.48" />
            <path d="M22.54,11.04 L6.44,11.04" />
            <polyline points="17.94 15.64 22.54 11.04 17.94 6.44" />
        </g>
    </symbol>
    <symbol id="icon-help" viewBox="0 0 23 23">
        <g transform="translate(2, 2)" fill="none" stroke-linecap="round" stroke-linejoin="round" stroke-width="1.5">
            <circle cx="9.69230769" cy="9.69230769" r="10.4423077" />
            <path d="M6.66346154,7.33546154 C6.66346154,5.662676 8.01952215,4.30661538 9.69230769,4.30661538 C11.3650932,4.30661538 12.7211538,5.662676 12.7211538,7.33546154 C12.7211538,9.00824708 11.3650932,10.3643077 9.69230769,10.3643077 L9.69230769,11.9796923" />
            <path d="M9.69230769,15.2104615 C9.91534576,15.2104615 10.0961538,15.3912696 10.0961538,15.6143077 C10.0961538,15.8373458 9.91534576,16.0181538 9.69230769,16.0181538 C9.46926962,16.0181538 9.28846154,15.8373458 9.28846154,15.6143077 C9.28846154,15.3912696 9.46926962,15.2104615 9.69230769,15.2104615" />
        </g>
    </symbol>
</svg>
