<svg version="1" xmlns="http://www.w3.org/2000/svg" width="960" height="960" viewBox="0 0 720.000000 720.000000"><path d="M150.9 15.4c-5.4 1.9-10.7 6.4-13.7 11.5-2.2 3.7-2.6 5.8-2.7 11.6 0 6.5.8 16.6 2 26 .3 2.2.7 6 .9 8.5.2 2.5.7 8.2 1.1 12.7l.8 8.3-48.7.1c-26.7.1-49.4.2-50.3.3-14.8 1.6-28.8 13.8-33 28.8-.9 3.1-1 48.9-.1 55.8.4 3 1 7.1 1.3 9 1 5.8 6.3 21.6 9 27 1.4 2.7 2.3 5 1.9 5-.3 0 .4 1.2 1.5 2.6 1.2 1.5 2.1 3.2 2.1 4 0 .7.4 1.4.8 1.6.4.1 1.9 2.1 3.2 4.3 2.8 4.5 3.3 5.2 11.1 14.4 3.1 3.6 8.2 8.8 11.5 11.6 3.2 2.7 6.1 5.3 6.2 5.7.2.5.9.8 1.6.8.7 0 2.1.9 3.1 2s2.4 2 3.1 2c.7 0 1.4.4 1.6.9.4 1.3 13.2 7.9 20.4 10.7 7.4 2.8 12.1 2 15-2.3 4.4-6.9.6-13.1-10.9-17.8-3.8-1.5-8.4-3.8-10.3-5.1-1.9-1.3-3.8-2.4-4.3-2.4-.4 0-1.6-.9-2.6-2s-2.2-2-2.7-2c-3.4 0-27.8-26.7-27.8-30.5 0-.7-.4-1.5-.8-1.7-2.2-.9-10-19.8-12.3-29.7-2.1-8.9-2.4-13.8-2.4-36.8v-23.1l3-4.3c1.7-2.4 4.6-5.2 6.5-6.4 3.4-1.9 4.9-2 54.5-2 50.3 0 51 0 51.1 2 .1 1.1.5 4.2.8 7 .3 2.7.8 7.5 1.1 10.5.2 3 .7 7.6 1 10.2.3 2.5.8 7 1 10 .2 2.9.6 7.3.9 9.8.3 2.5.8 7.2 1.1 10.5 1.2 12.9 1.5 15.1 1.9 19 .3 2.2.8 7.1 1.2 11 .3 3.8.8 8.8 1 11 .2 2.2.6 6.2.9 9 .3 2.7.7 6.8 1 9 .2 2.2.7 6.9 1 10.5.3 3.6.8 8.3 1.1 10.5.2 2.2.6 6.7.9 10 .3 3.3.7 7.3.9 9 .3 1.6.8 5.7 1.2 9 .3 3.3.8 6.9 1 8 .3 1.1.7 3.8 1 6 1.3 9.1 8.6 34.6 11.5 39.7.5 1 .9 2.2.9 2.7 0 3.2 19 39.1 21.2 39.9.4.2.8.8.8 1.3 0 .9 9 13.2 14.9 20.4 5 6 25.8 26.1 31.6 30.5 3.3 2.5 6.2 4.7 6.5 5 1.3 1.5 15.4 10.2 23.2 14.4 10.8 5.8 29.5 13.7 35.8 15.1.8.1 4.2 1.1 7.5 2.1 3.3.9 6.7 1.8 7.5 1.9.8.1 4.2.7 7.5 1.4 7.6 1.4 12.6 2 19.7 2.5 3.1.2 6 .6 6.5.9.6.4.9 20.8.9 50.3l-.1 49.8-5.5.2c-6.4.2-17.4 1.2-21 1.8-1.4.3-4.5.7-7 1-5.6.8-9.8 1.5-13 2.2-1.4.3-3.4.8-4.5 1-2 .4-4.9 1-8.2 1.8-4.6 1.1-16.3 4.6-20.3 6-2.5 1-5.2 1.9-6 2.1-.8.2-1.5.4-1.5.5 0 .1-.7.3-1.5.5-1.3.2-6.3 2.3-14 5.8-1.4.7-2.7 1.4-3 1.7-.3.3-2.7 1.6-5.5 2.8-5.7 2.7-14.8 8.3-15.3 9.4-.2.5-.8.8-1.3.8-1.4 0-13.5 9.6-19.5 15.5-10.9 10.6-20.2 25.4-24 38.1-2.3 7.8-2.3 7.8-2.9 15.6-.6 8.1.5 11.2 4.4 13.6 2.9 1.7 10.9 1.8 181.4 1.8 168.1-.1 178.4-.2 181-1.8 3.9-2.6 4.5-4.5 4.1-12.3-.5-9.9-1.2-13.4-4.7-22.5-8.6-22.5-29-42.7-59.9-59.3-3.8-2-6.8-3.4-6.8-3.1 0 .3-1-.2-2.2-1-1.2-.9-3-1.6-3.9-1.6-1 0-1.9-.3-2.1-.8-.3-.8-12.5-5.4-14.5-5.5-.7 0-1.3-.4-1.3-.8 0-.3-1.2-.9-2.7-1.2-1.6-.3-4.5-1-6.5-1.6-9-2.6-11.5-3.2-14.8-3.7-1.9-.3-4.8-.9-6.5-1.4-1.6-.5-4.8-1.2-7-1.5-2.2-.2-5.3-.8-7-1.1-4.7-.9-19.5-2.3-29.5-2.8-3.1-.1-6-.5-6.5-.8-1-.6-1.3-99.3-.4-100.2.2-.2 3.1-.7 6.4-1 7.4-.7 12.3-1.5 22.5-3.6 3-.6 6.2-1.4 7-1.6.8-.3 1.5-.5 1.5-.4 0 .3 21-7.2 25-9 11.4-4.9 27.7-13.7 28.3-15.2.2-.4.9-.8 1.6-.8.7 0 2.6-1 4.3-2.3 1.6-1.2 4.3-3.1 5.8-4.2 20.9-15 40.1-34.9 53.7-55.7C542.8 365 544 363 544 361.4c0-.8.4-1.4.8-1.4s1.3-1.2 1.9-2.8c.6-1.5 3.1-7.4 5.6-13.2 2.4-5.8 4.5-11 4.7-11.5.1-.6.4-1.5.5-2 .2-.6 1-3.3 1.8-6 2.2-7.4 4.5-17.7 5.3-23.5.2-1.9.7-5.1 1-7 .3-1.9.7-5.8.9-8.5.2-2.8.7-7.5 1.1-10.5.7-5.9.9-7.8 1.9-18 1.2-11.8 1.4-14.4 1.9-20 .3-3 .8-7.8 1.1-10.5.3-2.8.7-7.3 1-10 .2-2.8.8-7.9 1.2-11.5.3-3.6.7-8 .7-9.7.1-1.8.3-3.3.6-3.3s.5-1.7.6-3.8c.1-2 .4-7.1.8-11.2s.9-9.1 1.1-11c.2-1.9.6-6 .9-9 .4-3 .9-8 1.2-11 .2-3 .7-7.5 1-10 .3-2.5.7-7 .9-10 .2-3 .7-7 1-8.8l.6-3.2h46.1c49.4.1 50.1.1 55.6 5.3 2.4 2.2 6.8 9.7 5.7 9.7-.3 0-.2.7.3 1.6.5.9.6 3.2.2 5-.4 1.9-.4 3.4 0 3.4.5 0 .5 1.3 0 2.9-.4 1.6-.6 3.2-.2 3.5.8.9.8 6.6-.1 6.6-.5 0-.5.5-.1 1.2.8 1.3.8 11.1-.1 19.8-1.8 18.4-8.4 36.3-19.4 52-5.5 7.9-18.3 20.6-24.8 24.9-2.7 1.7-5.4 3.5-6.1 4.1-.7.6-6 3.3-11.7 6-12.5 5.9-15.3 9.3-13.1 16 2.1 6 7.8 7.9 15.4 5 8.9-3.4 28.2-14.4 28.2-16.2 0-.4.6-.8 1.4-.8 1.7 0 22.6-20.1 22.6-21.7 0-.6.4-1.3.8-1.5 3.4-1.3 16.9-25.9 20.6-37.4 1.8-5.5 1.9-5.8 4-15.5 2.4-10.4 3.8-35.2 2.2-37.7-.4-.7-.4-1.2.1-1.2.9 0 .7-14.9-.2-22-.4-2.5-1.1-5-1.7-5.7-.6-.7-.8-1.3-.5-1.3 1 0-3.6-8.4-6.4-11.7-5.8-6.9-16.5-13-24.3-13.8-1.2-.1-22.5-.3-47.4-.4l-45.3-.1.6-7.8c.4-4.2.9-9.1 1.1-10.7.2-1.7.6-5.9.9-9.5.4-3.6.8-7.9 1-9.5 2.1-14.8 1.3-29.5-1.5-29.5-.6 0-1-.6-1-1.3 0-1.7-5.7-7-10-9.3-3.4-1.8-10.8-1.9-213-2.1-168.8-.2-210.2 0-213.1 1.1z"/></svg>