<svg xmlns="http://www.w3.org/2000/svg" width="56" height="51" viewBox="0 0 56 51">
    <g fill="none" fill-rule="evenodd">
        <path stroke="#2D28C0" stroke-linecap="round" stroke-linejoin="round" stroke-width="2.3" d="M17.42 26.101L1.29 7.231l9.665-5.79 16.579 19.39M37.918 26.1L54.126 7.144l-9.72-5.734-16.931 19.806"/>
        <path fill="#FFF" d="M10.955 1.44l33.453-.03"/>
        <path stroke="#2D28C0" stroke-linecap="round" stroke-linejoin="round" stroke-width="2.3" d="M10.955 1.44l33.453-.03"/>
        <path fill="#FFF" d="M20.178 12.141h14.667"/>
        <path stroke="#2D28C0" stroke-linecap="round" stroke-linejoin="round" stroke-width="2.3" d="M20.178 12.141h14.667M41.23 35.433c0-7.537-6.054-13.646-13.522-13.646s-13.522 6.11-13.522 13.646c0 7.535 6.054 13.646 13.522 13.646S41.23 42.968 41.23 35.433z"/>
        <path stroke="#2D28C0" stroke-linecap="round" stroke-linejoin="round" stroke-width="2.3" d="M27.708 29.468l1.92 3.928 4.294.628-3.107 3.057.733 4.315-3.84-2.037-3.84 2.037.733-4.315-3.107-3.057 4.293-.628z"/>
    </g>
</svg>
