<svg xmlns="http://www.w3.org/2000/svg" width="276" height="275" viewBox="0 0 276 275">
    <path fill="#FFF" fill-rule="nonzero" d="M138 275c.672 0 1.342-.005 2.013-.014l-.029-2c-.66.01-1.322.014-1.984.014v2zm10.062-.36c.67-.048 1.338-.1 2.006-.159l-.172-1.992c-.659.057-1.318.109-1.977.156l.143 1.995zm10.034-1.088c.665-.096 1.33-.198 1.992-.304l-.316-1.975c-.654.105-1.308.205-1.963.3l.287 1.98zm9.899-1.81a137.52 137.52 0 0 0 1.969-.45l-.46-1.946c-.646.153-1.292.3-1.94.444l.43 1.953zm9.766-2.535c.643-.193 1.284-.39 1.924-.592l-.601-1.907c-.63.199-1.263.393-1.897.583l.574 1.916zm9.52-3.234c.628-.24 1.254-.483 1.879-.732l-.74-1.858c-.615.245-1.232.485-1.851.721l.712 1.87zm9.289-3.936a137.61 137.61 0 0 0 1.818-.866l-.873-1.8c-.596.29-1.193.574-1.793.855l.848 1.811zm8.97-4.603c.587-.328 1.17-.661 1.752-.998l-1.003-1.73c-.573.332-1.148.66-1.726.983l.978 1.745zm8.619-5.251c.56-.37 1.118-.745 1.673-1.123l-1.127-1.653c-.547.373-1.096.742-1.649 1.107l1.103 1.669zm8.207-5.863c.533-.41 1.062-.824 1.589-1.243l-1.244-1.566c-.52.412-1.041.82-1.566 1.225l1.221 1.584zm7.715-6.404c.502-.448 1-.9 1.495-1.355l-1.354-1.472c-.488.449-.979.894-1.473 1.335l1.332 1.492zm7.27-6.985c.467-.482.93-.968 1.39-1.457l-1.458-1.37c-.453.482-.91.96-1.37 1.436l1.438 1.391zm6.743-7.495c.43-.516.858-1.035 1.282-1.557l-1.554-1.26c-.417.515-.838 1.026-1.263 1.535l1.535 1.282zm6.184-7.974c.392-.545.78-1.094 1.164-1.645l-1.641-1.143c-.378.543-.76 1.083-1.147 1.62l1.624 1.168zm5.583-8.401c.35-.572.697-1.147 1.04-1.724l-1.721-1.02c-.337.569-.679 1.135-1.024 1.699l1.705 1.045zm4.954-8.794c.308-.597.612-1.196.91-1.798l-1.79-.89c-.295.592-.594 1.183-.897 1.771l1.777.917zm4.296-9.142c.263-.618.521-1.239.775-1.86l-1.851-.757c-.25.614-.505 1.225-.765 1.834l1.84.783zm3.606-9.43c.216-.636.428-1.274.635-1.913l-1.903-.616c-.204.63-.412 1.258-.625 1.884l1.893.645zm2.893-9.658c.169-.65.333-1.301.492-1.954l-1.943-.474c-.157.643-.318 1.285-.485 1.926l1.936.502zm2.147-9.715c.12-.66.237-1.322.348-1.984l-1.972-.331c-.11.652-.224 1.304-.343 1.955l1.967.36zm1.448-9.973c.071-.667.139-1.335.2-2.004l-1.99-.186c-.062.66-.128 1.318-.199 1.976l1.989.214zm.713-10.065c.023-.67.041-1.342.055-2.014l-2-.04a137.18 137.18 0 0 1-.054 1.985l1.999.069zm-.018-10.064c-.025-.67-.056-1.34-.09-2.008l-1.998.105c.035.659.065 1.318.09 1.979l1.998-.076zm-.749-10.056c-.074-.668-.154-1.336-.238-2.002l-1.984.25c.083.657.161 1.315.235 1.974l1.987-.222zm-1.482-9.961c-.123-.66-.251-1.32-.384-1.977l-1.96.396c.13.648.257 1.297.378 1.948l1.966-.367zm-2.217-9.844a135.99 135.99 0 0 0-.53-1.942l-1.925.54c.178.636.352 1.274.521 1.913l1.934-.511zm-2.945-9.664c-.219-.634-.442-1.266-.67-1.896l-1.881.682c.225.62.445 1.243.661 1.867l1.89-.653zm-3.628-9.362c-.266-.617-.536-1.232-.811-1.846l-1.825.818c.27.605.537 1.211.8 1.82l1.836-.792zm-4.327-9.108c-.311-.596-.626-1.19-.945-1.781l-1.76.95c.315.583.625 1.168.93 1.755l1.775-.924zm-4.99-8.772c-.354-.571-.712-1.14-1.074-1.707l-1.685 1.077c.357.558.71 1.12 1.058 1.682l1.7-1.052zm-5.624-8.387c-.394-.543-.792-1.083-1.194-1.62l-1.602 1.197c.396.53.788 1.062 1.176 1.597l1.62-1.174zm-6.168-7.888c-.432-.513-.867-1.023-1.307-1.53l-1.51 1.311c.432.5.861 1.002 1.287 1.507l1.53-1.288zm-6.77-7.47c-.469-.481-.942-.96-1.418-1.434l-1.411 1.417c.469.468.935.939 1.397 1.413L237 41.708zm-7.295-6.959c-.502-.445-1.008-.887-1.517-1.325l-1.305 1.516c.502.432 1 .867 1.495 1.306l1.327-1.497zm-7.79-6.416c-.533-.407-1.07-.81-1.608-1.21l-1.192 1.606c.532.394 1.06.792 1.585 1.193l1.215-1.589zm-8.233-5.83a138.22 138.22 0 0 0-1.694-1.09l-1.07 1.688c.558.355 1.115.713 1.668 1.076l1.096-1.673zm-8.642-5.216c-.587-.326-1.176-.647-1.768-.965l-.945 1.763c.583.313 1.164.63 1.743.95l.97-1.748zm-8.992-4.567c-.61-.282-1.221-.56-1.835-.833l-.813 1.828c.605.269 1.207.542 1.808.82l.84-1.815zm-9.321-3.903c-.629-.236-1.26-.468-1.892-.696l-.677 1.883c.624.224 1.245.452 1.865.685l.704-1.872zm-9.577-3.205c-.644-.19-1.29-.374-1.937-.554l-.536 1.926c.638.178 1.274.36 1.908.547l.565-1.919zm-9.705-2.475c-.656-.142-1.314-.28-1.973-.412l-.395 1.96c.65.131 1.298.267 1.945.407l.423-1.955zm-9.845-1.76c-.665-.095-1.33-.184-1.997-.269l-.252 1.984c.657.084 1.313.172 1.968.265l.281-1.98zM147.568.324c-.67-.045-1.34-.086-2.01-.122L145.45 2.2c.662.035 1.322.076 1.982.12l.136-1.995zM137.491.001c-.674.002-1.348.01-2.02.022l.035 2A139.17 139.17 0 0 1 137.498 2l-.007-2zm-10.06.396c-.671.05-1.342.106-2.012.167l.18 1.992c.66-.06 1.321-.114 1.983-.164l-.15-1.995zm-10.023 1.124c-.663.098-1.325.202-1.985.31l.324 1.974c.65-.107 1.302-.209 1.955-.306l-.294-1.978zm-9.9 1.847c-.655.147-1.308.3-1.96.456l.466 1.944c.643-.154 1.287-.304 1.933-.449l-.439-1.951zm-9.751 2.57c-.644.196-1.286.396-1.927.6l.609 1.906c.631-.202 1.264-.399 1.898-.591l-.58-1.914zm-9.505 3.268c-.625.24-1.249.486-1.87.736l.746 1.856c.613-.247 1.227-.489 1.843-.726l-.719-1.866zm-9.271 3.968c-.608.287-1.214.579-1.818.875l.88 1.795c.595-.291 1.192-.579 1.792-.862l-.854-1.808zm-8.964 4.64c-.585.332-1.168.667-1.749 1.006l1.01 1.727c.572-.335 1.146-.665 1.723-.991l-.984-1.741zm-8.597 5.283c-.56.372-1.116.748-1.67 1.129l1.133 1.648c.546-.375 1.094-.746 1.645-1.113l-1.108-1.664zm-8.185 5.891c-.53.412-1.059.829-1.583 1.248l1.25 1.562c.516-.414 1.036-.824 1.56-1.23l-1.227-1.58zm-7.691 6.432c-.5.45-.995.902-1.488 1.359l1.36 1.467c.485-.45.973-.896 1.466-1.339l-1.338-1.487zM38.3 42.431c-.466.485-.928.973-1.386 1.464l1.462 1.365c.452-.485.907-.965 1.366-1.443L38.3 42.431zm-6.716 7.52c-.43.517-.855 1.038-1.276 1.562l1.557 1.254c.416-.516.835-1.03 1.258-1.54l-1.539-1.276zm-6.156 7.997c-.39.547-.775 1.096-1.157 1.648l1.646 1.137c.376-.544.755-1.085 1.14-1.623l-1.629-1.162zm-5.552 8.423c-.349.573-.693 1.15-1.033 1.727l1.724 1.014c.335-.57.674-1.137 1.018-1.702l-1.71-1.04zm-4.923 8.814c-.306.598-.607 1.198-.904 1.8l1.794.884c.293-.593.59-1.185.89-1.774l-1.78-.91zm-4.258 9.148c-.26.619-.516 1.24-.768 1.862l1.855.75c.247-.614.5-1.226.756-1.836l-1.843-.776zM7.123 93.78c-.214.636-.424 1.274-.628 1.914l1.905.609c.201-.63.407-1.259.618-1.886l-1.895-.637zm-2.86 9.672c-.166.65-.327 1.303-.484 1.957l1.945.466c.154-.644.314-1.286.477-1.928l-1.937-.495zm-2.109 9.715c-.118.661-.232 1.323-.34 1.986l1.973.324c.107-.654.22-1.306.336-1.957l-1.969-.353zm-1.412 9.984c-.069.668-.134 1.336-.193 2.006l1.992.178c.059-.66.122-1.319.19-1.977l-1.989-.207zm-.676 10.062c-.02.67-.037 1.342-.048 2.014l2 .032c.011-.662.027-1.324.047-1.985l-2-.061zM.12 143.29c.028.672.06 1.344.099 2.014l1.996-.112c-.037-.66-.069-1.323-.097-1.985l-1.998.083zm.785 10.045c.077.666.159 1.332.245 1.996l1.983-.258c-.085-.655-.165-1.31-.24-1.967l-1.988.23zm1.52 9.963c.126.662.257 1.322.393 1.98l1.959-.402c-.134-.65-.263-1.3-.387-1.952l-1.965.374zm2.253 9.831c.175.65.354 1.298.538 1.944l1.923-.547a134.07 134.07 0 0 1-.53-1.916l-1.93.519zm2.97 9.624c.222.634.448 1.266.68 1.897l1.877-.688c-.227-.621-.45-1.244-.669-1.869l-1.888.66zm3.67 9.37c.269.617.542 1.232.82 1.846l1.821-.825c-.273-.604-.542-1.21-.807-1.819l-1.834.798zm4.366 9.102c.313.595.63 1.188.952 1.78l1.756-.958c-.317-.582-.63-1.166-.938-1.753l-1.77.931zm5.021 8.751c.356.57.716 1.139 1.08 1.704l1.681-1.083c-.358-.557-.713-1.117-1.064-1.68l-1.697 1.06zm5.654 8.366c.396.541.796 1.08 1.2 1.616l1.597-1.203a136.02 136.02 0 0 1-1.182-1.593l-1.615 1.18zm6.196 7.865c.435.512.874 1.022 1.316 1.528l1.506-1.316a136.4 136.4 0 0 1-1.297-1.506l-1.525 1.294zm6.797 7.445c.47.479.944.954 1.42 1.426l1.407-1.422c-.47-.465-.937-.933-1.4-1.405l-1.427 1.401zm7.32 6.932c.505.444 1.012.884 1.523 1.32l1.3-1.52a136.64 136.64 0 0 1-1.5-1.301l-1.322 1.501zm7.815 6.389c.536.406 1.074.808 1.616 1.207l1.185-1.61c-.534-.394-1.065-.79-1.592-1.19l-1.21 1.593zm8.255 5.8c.564.366 1.13.728 1.699 1.086l1.065-1.693c-.561-.353-1.12-.71-1.675-1.07l-1.089 1.677zm8.65 5.18c.589.323 1.179.642 1.771.957l.939-1.767c-.584-.31-1.166-.624-1.745-.943l-.964 1.752zm9.024 4.54c.61.28 1.223.556 1.838.826l.806-1.83c-.605-.267-1.21-.538-1.81-.814l-.834 1.819zm9.326 3.865c.629.234 1.26.464 1.892.688l.67-1.884c-.623-.222-1.245-.448-1.865-.678l-.697 1.874zm9.593 3.172c.644.187 1.29.37 1.939.547l.529-1.929c-.639-.175-1.276-.355-1.911-.54l-.557 1.922zm9.718 2.44c.657.14 1.315.274 1.974.405l.387-1.963c-.65-.128-1.298-.26-1.945-.398l-.416 1.956zm9.844 1.723c.665.092 1.331.179 1.998.261l.245-1.985c-.658-.08-1.314-.167-1.97-.257l-.273 1.981zm10.029 1.014c.67.044 1.34.082 2.01.116l.101-1.997c-.661-.034-1.322-.072-1.982-.114l-.13 1.995z" opacity=".3"/>
</svg>
