<svg xmlns="http://www.w3.org/2000/svg" width="229" height="228" viewBox="0 0 229 228">
    <path fill="#FFF" fill-opacity=".47" fill-rule="nonzero" d="M114.5 228c.673 0 1.345-.006 2.016-.017l-.034-2c-.66.011-1.32.017-1.982.017v2zm10.073-.435c.669-.058 1.337-.122 2.004-.192l-.208-1.989c-.655.069-1.312.131-1.97.188l.174 1.993zm10.023-1.315c.662-.117 1.323-.24 1.983-.368l-.382-1.963c-.648.126-1.298.246-1.948.361l.347 1.97zm9.838-2.186c.65-.174 1.297-.354 1.942-.54l-.553-1.922c-.634.182-1.27.36-1.908.531l.52 1.931zm9.644-3.058c.631-.232 1.26-.469 1.886-.711l-.722-1.865c-.615.238-1.233.47-1.853.698l.69 1.878zm9.283-3.877c.609-.287 1.216-.58 1.82-.877l-.883-1.794c-.594.292-1.19.58-1.789.86l.852 1.81zm8.949-4.705c.58-.338 1.157-.682 1.732-1.03l-1.039-1.71c-.564.342-1.131.68-1.701 1.013l1.008 1.727zm8.493-5.471c.55-.39 1.095-.783 1.637-1.181l-1.184-1.612c-.533.392-1.07.779-1.609 1.16l1.156 1.633zm7.997-6.21c.512-.437 1.021-.877 1.526-1.322l-1.322-1.5c-.496.436-.996.869-1.5 1.297l1.296 1.524zm7.338-6.81c.474-.48.943-.962 1.407-1.45l-1.447-1.38c-.457.479-.917.954-1.382 1.424l1.422 1.406zm6.779-7.495c.43-.518.854-1.041 1.274-1.567l-1.563-1.248c-.413.517-.83 1.03-1.252 1.54l1.54 1.275zm6.087-8.055c.382-.554.759-1.111 1.13-1.672l-1.667-1.105c-.365.55-.735 1.099-1.11 1.643l1.647 1.134zm5.356-8.567c.331-.586.657-1.174.978-1.766l-1.759-.953c-.315.581-.635 1.16-.96 1.735l1.741.984zm4.58-9.022c.277-.613.55-1.228.816-1.845l-1.837-.792c-.261.606-.528 1.21-.8 1.812l1.821.825zm3.753-9.388c.222-.635.438-1.273.648-1.912l-1.9-.625c-.206.628-.418 1.254-.636 1.878l1.888.659zm2.9-9.69c.163-.652.32-1.307.473-1.962l-1.948-.452c-.15.644-.305 1.286-.466 1.927l1.94.487zm2.02-9.919c.104-.664.203-1.33.296-1.996l-1.98-.276c-.092.655-.19 1.308-.292 1.96l1.976.312zm1.12-9.95c.046-.67.086-1.34.12-2.013l-1.998-.101c-.033.66-.072 1.32-.117 1.979l1.995.136zm.247-10.015a115.34 115.34 0 0 0-.056-2.02l-1.999.072c.024.661.043 1.323.055 1.985l2-.037zm-.633-10.076c-.071-.668-.149-1.335-.232-2l-1.985.248c.082.654.158 1.309.229 1.965l1.988-.213zm-1.52-9.974a113.04 113.04 0 0 0-.41-1.973l-1.955.424c.14.645.274 1.29.403 1.938l1.961-.39zm-2.408-9.81c-.19-.645-.384-1.289-.585-1.93l-1.909.597c.197.63.39 1.263.575 1.897l1.92-.563zm-3.276-9.557c-.247-.627-.5-1.252-.757-1.874l-1.848.765c.253.612.501 1.226.744 1.842l1.86-.733zm-4.106-9.203c-.302-.603-.608-1.202-.92-1.8l-1.773.928c.307.586.608 1.175.905 1.767l1.788-.895zm-4.922-8.827a113.98 113.98 0 0 0-1.075-1.708l-1.683 1.081c.357.556.71 1.115 1.056 1.678l1.702-1.051zm-5.687-8.36c-.403-.539-.811-1.075-1.223-1.607l-1.581 1.225c.405.523.806 1.05 1.202 1.58l1.602-1.197zm-6.396-7.816c-.448-.501-.901-.999-1.359-1.492l-1.467 1.359c.45.485.895.974 1.336 1.467l1.49-1.334zm-7.006-7.176c-.49-.46-.984-.915-1.482-1.367L190.2 31.15c.49.443.974.89 1.456 1.342l1.369-1.458zm-7.663-6.584c-.53-.415-1.062-.826-1.598-1.232l-1.208 1.594c.527.4 1.05.803 1.57 1.211l1.236-1.573zm-8.205-5.88c-.563-.367-1.13-.73-1.7-1.087l-1.062 1.694c.56.351 1.116.707 1.67 1.068l1.092-1.675zm-8.705-5.145c-.594-.316-1.19-.627-1.789-.933l-.91 1.781c.59.3 1.175.606 1.758.917l.94-1.765zm-9.12-4.353c-.62-.263-1.241-.52-1.865-.772l-.748 1.855c.613.247 1.224.5 1.832.758l.781-1.841zm-9.481-3.533a113.97 113.97 0 0 0-1.925-.603l-.58 1.914c.631.192 1.262.389 1.89.592l.615-1.903zm-9.76-2.68c-.656-.149-1.314-.292-1.973-.43l-.408 1.958c.647.135 1.293.276 1.937.423l.443-1.95zm-9.932-1.8c-.666-.091-1.333-.176-2.001-.255l-.235 1.986c.656.078 1.312.161 1.966.25l.27-1.982zM120.248.14c-.67-.033-1.343-.06-2.015-.082l-.064 2c.661.02 1.321.047 1.98.08l.1-1.998zm-10.087-.06c-.674.024-1.347.055-2.019.092l.109 1.997c.66-.036 1.322-.066 1.984-.091L110.16.08zm-10.069.813c-.67.084-1.337.173-2.004.268l.283 1.98c.655-.093 1.312-.181 1.97-.263l-.249-1.985zm-9.935 1.688c-.659.142-1.316.29-1.971.443l.456 1.947c.644-.15 1.29-.295 1.936-.435l-.421-1.955zm-9.783 2.567c-.643.2-1.285.406-1.924.617l.627 1.899c.628-.208 1.258-.41 1.89-.606l-.593-1.91zm-9.47 3.406c-.624.256-1.245.517-1.863.783l.792 1.837c.607-.262 1.217-.518 1.83-.77l-.76-1.85zm-9.17 4.245c-.596.31-1.19.623-1.78.942l.95 1.76c.581-.314 1.164-.622 1.75-.926l-.92-1.776zm-8.761 5.04c-.569.362-1.134.728-1.696 1.1l1.103 1.668c.552-.365 1.107-.724 1.666-1.08l-1.073-1.687zm-8.285 5.794c-.533.409-1.063.822-1.588 1.24l1.244 1.566c.517-.411 1.037-.817 1.561-1.22l-1.217-1.586zm-7.716 6.474c-.496.454-.988.913-1.476 1.376l1.377 1.45c.48-.454.963-.905 1.45-1.352l-1.351-1.474zm-7.113 7.117c-.455.496-.905.997-1.35 1.5l1.498 1.325c.438-.495.88-.987 1.327-1.475l-1.475-1.35zm-6.485 7.74c-.409.534-.813 1.072-1.212 1.613l1.61 1.187c.392-.531.789-1.06 1.19-1.584l-1.588-1.216zm-5.776 8.28c-.36.57-.716 1.14-1.066 1.716L18.24 56c.344-.564.693-1.126 1.047-1.685l-1.69-1.07zm-5.028 8.773c-.309.598-.612 1.199-.91 1.802l1.794.885c.293-.593.59-1.183.893-1.771l-1.777-.916zm-4.228 9.186c-.253.622-.501 1.247-.744 1.875l1.866.72c.238-.616.481-1.23.73-1.841l-1.852-.754zm-3.39 9.529c-.196.643-.388 1.288-.573 1.935l1.923.55c.182-.635.37-1.268.563-1.9l-1.913-.585zm-2.525 9.809c-.138.658-.27 1.317-.397 1.978l1.964.376c.124-.649.254-1.297.39-1.943l-1.957-.411zm-1.63 9.938c-.08.667-.153 1.336-.22 2.005l1.99.2c.066-.657.138-1.314.216-1.97l-1.986-.235zm-.742 9.943c-.02.671-.035 1.343-.044 2.017l2 .027c.008-.662.023-1.323.043-1.983l-1.999-.061zm.13 10.097c.037.67.081 1.34.13 2.009l1.995-.149c-.049-.656-.092-1.314-.129-1.973l-1.997.113zm1.014 10.038c.098.667.201 1.333.31 1.998l1.974-.325c-.108-.653-.21-1.307-.305-1.962l-1.979.289zm1.904 9.914c.156.653.318 1.305.486 1.956l1.936-.5c-.164-.638-.323-1.279-.477-1.92l-1.945.464zm2.786 9.714c.215.639.435 1.275.66 1.91l1.885-.671c-.222-.623-.438-1.248-.65-1.876l-1.895.637zm3.628 9.39c.27.615.545 1.228.826 1.839l1.817-.836c-.276-.6-.546-1.202-.811-1.806l-1.832.803zm4.467 9.063c.324.59.654 1.178.989 1.762l1.735-.994a111.67 111.67 0 0 1-.971-1.73l-1.753.962zm5.257 8.635c.375.559.756 1.114 1.14 1.666l1.641-1.144c-.378-.542-.752-1.088-1.12-1.637l-1.66 1.115zm6.008 8.144c.423.524.851 1.044 1.284 1.56l1.533-1.284c-.425-.507-.846-1.018-1.262-1.533l-1.555 1.257zm6.633 7.511c.467.485.939.966 1.415 1.442l1.415-1.413c-.467-.468-.93-.94-1.39-1.417l-1.44 1.388zm7.32 6.954c.506.44 1.017.877 1.531 1.309l1.286-1.532c-.505-.424-1.007-.853-1.505-1.286l-1.313 1.509zm7.903 6.287c.545.395 1.093.786 1.644 1.171l1.146-1.638a112.84 112.84 0 0 1-1.614-1.151l-1.176 1.618zm8.434 5.574c.577.345 1.157.686 1.74 1.021l.998-1.733c-.573-.33-1.143-.664-1.71-1.004l-1.028 1.716zm8.887 4.805c.606.294 1.214.582 1.824.865l.841-1.815c-.6-.278-1.197-.561-1.792-.85l-.873 1.8zm9.288 4.006c.628.239 1.26.472 1.893.7l.676-1.883c-.622-.223-1.242-.452-1.86-.687l-.71 1.87zm9.606 3.167c.647.182 1.296.358 1.947.529l.507-1.935c-.64-.168-1.277-.34-1.912-.52l-.542 1.926zm9.852 2.304c.66.124 1.323.242 1.986.354l.334-1.972c-.652-.11-1.302-.226-1.95-.348l-.37 1.966zm9.955 1.419c.67.065 1.34.125 2.01.18l.16-1.994a113.6 113.6 0 0 1-1.974-.177l-.196 1.99zm9.98.547c.464.005.928.008 1.393.008v-2c-.457 0-.913-.003-1.37-.008l-.023 2z"/>
</svg>
