<svg xmlns="http://www.w3.org/2000/svg" width="196" height="196" viewBox="0 0 196 196">
    <path fill="#FFF" fill-rule="nonzero" d="M98 196c.675 0 1.348-.007 2.021-.02l-.04-2c-.66.013-1.32.02-1.981.02v2zm10.091-.513c.67-.069 1.339-.144 2.006-.226l-.245-1.985c-.653.08-1.308.154-1.964.221l.203 1.99zm9.98-1.545a97.41 97.41 0 0 0 1.977-.432l-.448-1.95c-.643.148-1.289.29-1.936.424l.408 1.958zm9.793-2.576a97.235 97.235 0 0 0 1.92-.636l-.648-1.892c-.625.214-1.251.422-1.88.623l.608 1.905zm9.434-3.563c.616-.27 1.23-.547 1.84-.83l-.84-1.815c-.598.277-1.2.548-1.803.813l.803 1.832zm9.045-4.537a97.912 97.912 0 0 0 1.746-1.016l-1.024-1.718c-.567.337-1.136.669-1.71.995l.988 1.739zm8.527-5.446c.548-.39 1.092-.787 1.631-1.19l-1.195-1.603a96.32 96.32 0 0 1-1.598 1.165l1.162 1.628zm7.938-6.307a98.576 98.576 0 0 0 1.501-1.352l-1.353-1.473c-.486.447-.976.888-1.47 1.325l1.322 1.5zm7.178-7.014c.457-.494.908-.993 1.355-1.496l-1.496-1.328c-.438.494-.88.983-1.328 1.467l1.469 1.357zm6.475-7.771c.405-.54.803-1.083 1.196-1.63l-1.624-1.166a96.34 96.34 0 0 1-1.172 1.596l1.6 1.2zm5.644-8.397c.346-.577.687-1.158 1.02-1.742l-1.735-.993c-.328.572-.661 1.141-1 1.706l1.715 1.029zm4.75-8.94c.285-.61.563-1.223.836-1.839l-1.83-.808c-.267.604-.54 1.204-.818 1.802l1.812.846zm3.8-9.387c.22-.636.433-1.275.64-1.916l-1.904-.613a95.303 95.303 0 0 1-.627 1.876l1.89.653zm2.802-9.73c.153-.655.298-1.313.437-1.972l-1.957-.412c-.136.646-.279 1.29-.428 1.932l1.948.453zm1.78-9.98c.083-.668.16-1.337.23-2.008l-1.99-.207a96.25 96.25 0 0 1-.225 1.966l1.984.248zm.739-10.095c.015-.673.023-1.346.024-2.02l-2-.004a97.87 97.87 0 0 1-.024 1.98l2 .044zm-.289-10.083a98.517 98.517 0 0 0-.18-2.012l-1.99.2c.065.655.124 1.313.177 1.97l1.993-.158zm-1.321-10.032a97.547 97.547 0 0 0-.388-1.983l-1.959.404c.134.646.26 1.293.38 1.942l1.967-.363zm-2.347-9.823a97.173 97.173 0 0 0-.59-1.93l-1.907.606c.2.627.392 1.257.578 1.889l1.919-.565zm-3.367-9.56a97.458 97.458 0 0 0-.788-1.859l-1.833.8c.263.605.52 1.212.772 1.821l1.85-.761zm-4.311-9.1a97.834 97.834 0 0 0-.977-1.77l-1.74.984a95.8 95.8 0 0 1 .956 1.734l1.761-.949zm-5.252-8.65a98.222 98.222 0 0 0-1.155-1.66l-1.63 1.158c.383.538.76 1.08 1.132 1.627l1.653-1.125zm-6.124-8.076a98.54 98.54 0 0 0-1.318-1.53l-1.502 1.32c.435.495.866.995 1.29 1.5l1.53-1.29zm-6.89-7.372a98.604 98.604 0 0 0-1.469-1.39l-1.36 1.467c.485.449.964.903 1.44 1.362l1.389-1.44zm-7.581-6.609a98.407 98.407 0 0 0-1.601-1.231l-1.203 1.597c.527.397 1.05.8 1.568 1.207l1.236-1.573zm-8.268-5.833c-.57-.36-1.144-.714-1.721-1.062l-1.032 1.713c.565.341 1.127.688 1.686 1.04l1.067-1.691zm-8.825-4.95a97.581 97.581 0 0 0-1.82-.878l-.85 1.81c.598.281 1.192.568 1.783.86l.887-1.792zm-9.297-4.013a97.268 97.268 0 0 0-1.902-.684l-.657 1.889c.623.217 1.245.44 1.863.67l.696-1.875zm-9.673-3.028a97.312 97.312 0 0 0-1.962-.482l-.457 1.947c.643.151 1.284.308 1.922.472l.497-1.937zm-9.94-2.006a97.964 97.964 0 0 0-2.002-.276l-.253 1.984c.655.084 1.309.174 1.961.27l.293-1.978zM102.4.097a99.42 99.42 0 0 0-2.02-.069l-.047 2c.66.016 1.32.038 1.978.067l.089-1.998zM92.337.161c-.673.038-1.346.083-2.017.136l.155 1.994a96.846 96.846 0 0 1 1.976-.133L92.337.16zM82.275 1.255a97.67 97.67 0 0 0-1.988.342l.36 1.967a95.67 95.67 0 0 1 1.946-.334l-.318-1.975zm-9.869 2.121c-.65.175-1.298.357-1.943.546l.56 1.92a95.25 95.25 0 0 1 1.904-.535l-.521-1.931zm-9.63 3.145c-.629.242-1.254.49-1.877.746l.757 1.85a95.34 95.34 0 0 1 1.839-.73l-.72-1.866zm-9.205 4.106c-.6.306-1.198.618-1.792.936l.945 1.763a95.719 95.719 0 0 1 1.754-.917l-.907-1.782zm-8.769 5.055c-.565.366-1.126.738-1.684 1.115l1.122 1.656c.546-.37 1.096-.734 1.65-1.092l-1.088-1.679zm-8.21 5.939c-.524.422-1.045.85-1.561 1.284l1.286 1.531a96.49 96.49 0 0 1 1.53-1.257l-1.255-1.558zm-7.54 6.736c-.48.474-.953.953-1.422 1.437l1.436 1.392c.46-.474.924-.943 1.393-1.408l-1.407-1.421zm-6.77 7.423c-.428.52-.85 1.044-1.267 1.573l1.57 1.239c.409-.518.823-1.032 1.242-1.542l-1.545-1.27zm-6.014 8.127a98.12 98.12 0 0 0-1.1 1.697l1.69 1.071a96.11 96.11 0 0 1 1.077-1.662l-1.667-1.106zm-5.152 8.716a97.675 97.675 0 0 0-.919 1.8l1.791.891c.294-.59.594-1.179.9-1.763l-1.772-.928zm-4.223 9.204a97.318 97.318 0 0 0-.727 1.885l1.873.7c.231-.618.469-1.234.712-1.847l-1.858-.738zm-3.246 9.595a97.256 97.256 0 0 0-.527 1.951l1.937.501c.165-.639.337-1.276.516-1.91l-1.926-.542zm-2.231 9.887a97.76 97.76 0 0 0-.321 1.995l1.977.298a95.75 95.75 0 0 1 .315-1.954l-1.971-.339zM.22 91.381a99.024 99.024 0 0 0-.114 2.017l1.998.092c.03-.66.068-1.318.112-1.976L.22 91.38zm-.16 10.068c.023.674.053 1.347.09 2.019l1.997-.11a97.22 97.22 0 0 1-.089-1.978l-1.998.069zm.866 10.079c.092.667.191 1.334.297 1.998l1.975-.314c-.103-.651-.2-1.304-.29-1.958l-1.982.274zm1.897 9.92c.16.653.328 1.305.502 1.955l1.932-.517a95.288 95.288 0 0 1-.492-1.915l-1.942.476zm2.924 9.697c.228.633.462 1.264.702 1.892l1.868-.715a95.285 95.285 0 0 1-.688-1.853l-1.882.676zm3.895 9.297c.292.606.59 1.21.895 1.81l1.783-.904c-.298-.588-.59-1.18-.876-1.774l-1.802.868zm4.852 8.876c.353.573.712 1.142 1.077 1.708l1.681-1.083a96.058 96.058 0 0 1-1.055-1.674l-1.703 1.049zm5.751 8.34c.41.535.826 1.064 1.248 1.59l1.56-1.25a96.434 96.434 0 0 1-1.222-1.558l-1.586 1.218zm6.579 7.707c.462.488.93.972 1.403 1.452l1.424-1.405a96.6 96.6 0 0 1-1.375-1.422l-1.452 1.375zm7.254 6.92c.51.44 1.026.875 1.545 1.304l1.274-1.542a96.52 96.52 0 0 1-1.514-1.277l-1.305 1.515zm8 6.204c.553.384 1.109.763 1.67 1.136l1.108-1.665a96.201 96.201 0 0 1-1.635-1.113l-1.143 1.642zm8.588 5.342c.589.326 1.181.645 1.777.959l.931-1.77a95.774 95.774 0 0 1-1.741-.94l-.967 1.751zm9.106 4.433c.62.263 1.244.52 1.87.77l.742-1.858a95.372 95.372 0 0 1-1.831-.754l-.78 1.842zm9.514 3.462c.644.197 1.29.387 1.938.571l.545-1.924a95.238 95.238 0 0 1-1.898-.56l-.585 1.913zm9.83 2.456c.661.13 1.324.251 1.988.367l.342-1.97c-.65-.114-1.3-.234-1.946-.36l-.384 1.963zm10.04 1.424c.67.06 1.341.113 2.014.16l.137-1.996a96.662 96.662 0 0 1-1.973-.156l-.178 1.992z"/>
</svg>
