<svg xmlns="http://www.w3.org/2000/svg" width="61" height="61" viewBox="0 0 61 61">
    <g fill="none" fill-rule="evenodd" stroke-linecap="round" stroke-linejoin="round" stroke-width="2" transform="translate(1 1)">
        <circle cx="30" cy="29" r="19" fill="#280A74" stroke="#A592D2"/>
        <path stroke="#A592D2" d="M17 43a85.105 85.105 0 0 1 8.174-3.329c1.529-.581 1.28-4.672.6-5.434a11.73 11.73 0 0 1-2.94-8.96 7.669 7.669 0 0 1 1.823-5.736A7.31 7.31 0 0 1 30 17a7.31 7.31 0 0 1 5.343 2.541 7.669 7.669 0 0 1 1.822 5.735 11.73 11.73 0 0 1-2.94 8.961c-.679.773-.928 4.853.601 5.434A85.105 85.105 0 0 1 43 43"/>
        <g stroke="#8F25F3">
            <path d="M41.075 2.114l-1.15 2.772M56.886 17.925l-2.772 1.15M56.886 41.075l-2.772-1.15M41.075 56.886l-1.15-2.772M17.925 56.886l1.15-2.772M2.114 41.075l2.772-1.15M2.114 17.925l2.772 1.15M17.925 2.114l1.15 2.772"/>
        </g>
        <g stroke="#1488C8">
            <path d="M29.5 0v3M50.56 8.44l-2.12 2.12M59 29.5h-3M50.56 50.56l-2.12-2.12M29.5 59v-3M8.44 50.56l2.12-2.12M0 29.5h3M8.44 8.44l2.12 2.12"/>
        </g>
    </g>
</svg>
