<svg xmlns="http://www.w3.org/2000/svg" width="50" height="50" viewBox="0 0 50 50">
    <g fill="none" fill-rule="evenodd" stroke="#7CF4FE" stroke-linecap="round" stroke-linejoin="round" stroke-width="2">
        <path d="M33 7l-9.828 12L18 14M6.139 29C3.049 27.8.999 24.702 1 21.238v-5.17C1 14.926 1.88 14 2.967 14H7M43.861 29c3.09-1.2 5.14-4.298 5.139-7.762v-5.17C49 14.926 48.12 14 47.033 14H43"/>
        <path d="M44 3.14a2.072 2.072 0 0 0-.601-1.51A2.13 2.13 0 0 0 41.884 1H8.116a2.13 2.13 0 0 0-1.515.63 2.072 2.072 0 0 0-.6 1.51c.734 29.663 16.822 21.188 16.822 32.295-.116 6.432-2.82 8.817-7.452 9.297a2.205 2.205 0 0 0-1.992 2.181c0 1.153.947 2.087 2.115 2.087h19.012c1.168 0 2.115-.934 2.115-2.087 0-1.123-.86-2.064-1.992-2.18-4.633-.48-7.336-2.866-7.452-9.298 0-11.107 16.088-2.632 16.822-32.296z"/>
    </g>
</svg>
