<svg xmlns="http://www.w3.org/2000/svg" width="53" height="53" viewBox="0 0 53 53">
    <g fill="none" fill-rule="evenodd" stroke="#7CF4FE" stroke-linecap="round" stroke-linejoin="round" stroke-width="2" transform="translate(1 1)">
        <circle cx="26" cy="5" r="5"/>
        <path d="M36 20c-1.166-4.706-5.283-8-10-8s-8.834 3.294-10 8h20z"/>
        <circle cx="10" cy="36" r="5"/>
        <path d="M20 51c-1.166-4.706-5.283-8-10-8s-8.834 3.294-10 8h20z"/>
        <circle cx="41" cy="36" r="5"/>
        <path d="M51 51c-1.166-4.706-5.283-8-10-8s-8.834 3.294-10 8h20z"/>
        <path d="M32 40.418a18.738 18.738 0 0 1-13 0M35 10c5.676 3.778 8.71 10.342 7.858 17M16 10c-5.676 3.778-8.71 10.342-7.858 17" opacity=".4"/>
    </g>
</svg>
