<?xml version="1.0" encoding="UTF-8"?>
<svg width="52px" height="64px" viewBox="0 0 52 64" version="1.1" xmlns="http://www.w3.org/2000/svg" xmlns:xlink="http://www.w3.org/1999/xlink">
    <!-- Generator: Sketch 58 (84663) - https://sketch.com -->
    <title>notification-on-fire</title>
    <desc>Created with Sketch.</desc>
    <g id="Icons" stroke="none" stroke-width="1" fill="none" fill-rule="evenodd" stroke-linecap="round" stroke-linejoin="round">
        <g id="CCC-Icons-and-badges" transform="translate(-153.000000, -451.000000)" stroke="#FFFFFF">
            <g id="notification-on-fire" transform="translate(154.000000, 452.000000)">
                <path d="M49.9990497,36.1555776 C50.1166947,50.0260646 39.2960342,61.4364484 25.6716287,61.8088372 C12.0472232,62.1812259 0.640393167,51.3783744 0.0263589564,37.521455 C0,37.0661625 0,36.61087 0,36.1555776 C-0.0138048828,28.625991 3.26518691,21.4805908 8.94723425,16.6583476 C9.93395568,20.0604273 11.6203527,23.2100233 13.8945043,25.8981063 C16.0074886,22.0809772 17.1135227,17.7721473 17.1049668,13.3909547 C17.1006525,8.69684648 15.9031008,4.08372137 13.6287201,0 C29.251253,2.8744211 40.6562824,16.6510984 40.7887065,32.8078389 C40.7930815,33.0402705 40.7842952,33.2727656 40.7623913,33.5041686 C43.7614679,32.520207 46.541288,30.9459493 48.9438076,28.8708982 C49.6468723,31.2328169 50.0024749,33.6876567 49.9990497,36.1555776 Z" id="Path" fill="#88097C"></path>
                <path d="M26.6851181,31.8647981 C26.9576306,31.7553705 27.268835,31.8432444 27.4459204,32.0796237 C27.6230059,32.3160029 27.6224831,32.6428366 27.4446423,32.8786349 C24.9745968,36.3072942 24.6583244,40.8621377 26.6303071,44.6064033 C27.7897774,43.7868402 28.6733103,42.627743 29.1620543,41.2850317 C29.2166014,41.0990751 29.3489517,40.9466286 29.5242003,40.867897 C29.6994489,40.7891654 29.8999996,40.7920539 30.0729612,40.8758007 C33.5970278,42.6360388 35.7149637,46.3810667 35.428781,50.3461982 C35.4847558,53.1640731 34.4027941,55.8832778 32.432613,57.8762184 C30.462432,59.8691591 27.774281,60.9636197 24.9885866,60.9069982 C22.1718732,60.895031 19.4783271,59.7373965 17.5145242,57.6947894 C15.5507214,55.6521823 14.4817695,52.8963358 14.5483922,50.0478556 C14.6395157,42.0784359 19.4117016,34.9288199 26.6851181,31.8647981 L26.6851181,31.8647981 Z" id="Path" fill="#410988"></path>
            </g>
        </g>
    </g>
</svg>